Coordinates
nRows=14
nColumns=24

# SIMM Motion File Header:
name Coordinates
datacolumns 24
datarows 14
otherdata 1
range 0.36832999999999999000 0.38133000000000000000
endheader
time	pelvis_tx	pelvis_ty	pelvis_tz	pelvis_tilt	pelvis_list	pelvis_rotation	hip_flexion_r	hip_adduction_r	hip_rotation_r	knee_angle_r	ankle_angle_r	subtalar_angle_r	mtp_angle_r	hip_flexion_l	hip_adduction_l	hip_rotation_l	knee_angle_l	ankle_angle_l	subtalar_angle_l	mtp_angle_l	lumbar_extension	lumbar_bending	lumbar_rotation
      0.36832999999999999000	      0.87011165328910178000	      0.79650415736191860000	     -0.21002920024768479000	     -7.39952692514427750000	      0.50101459340409049000	     -6.24669000019181380000	     -2.01870003721015930000	      6.83895705901835260000	      3.29556380143710560000	     -4.49759928456191820000	      9.11874197276376110000	      0.00000000000001043696	     -0.00000000000007781715	     32.96241797884389500000	     -5.05761627507747760000	     -1.28181946184101210000	    -23.08877862672848700000	     -4.20509546919381360000	     -0.00000000000000297941	     -0.00000000000005754476	      3.36744903053404610000	     -3.38735147279416180000	      6.25578619074683400000
      0.36932999999999999000	      0.87140552685501760000	      0.79627424999884044000	     -0.21000032551345510000	     -7.41791654516577560000	      0.49490941213158157000	     -6.29354872514188820000	     -2.13041526131111870000	      6.84749519379993110000	      3.21293013289150540000	     -4.44713211192374390000	      9.14775188758116190000	      0.00000000000001000222	     -0.00000000000007722894	     32.96509890225798500000	     -5.08131265507371400000	     -1.39770952565905660000	    -22.64129799787414400000	     -4.22449184989493800000	     -0.00000000000000293276	     -0.00000000000005803632	      3.38461927097165030000	     -3.35958850467511820000	      6.30287508721920720000
      0.37032999999999999000	      0.87270075567751837000	      0.79604329978762878000	     -0.20997151478856130000	     -7.43618583497770570000	      0.48868040668195822000	     -6.34007000463413740000	     -2.24239097605632900000	      6.85610359328468190000	      3.12964624700583420000	     -4.39672975573126210000	      9.17730235998083540000	      0.00000000000000957706	     -0.00000000000007665084	     32.96715398495020100000	     -5.10479849804330590000	     -1.51374871247037520000	    -22.19384346665317100000	     -4.24350410742721620000	     -0.00000000000000288452	     -0.00000000000005852922	      3.40181837528188020000	     -3.33189651176185200000	      6.34991727402729640000
      0.37132999999999999000	      0.87400005026977423000	      0.79580922103201657000	     -0.20994289609167524000	     -7.45409413416093350000	      0.48207992870099181000	     -6.38557894775290790000	     -2.35514816273429030000	      6.86492278687895310000	      3.04441170909994960000	     -4.34652184887585500000	      9.20847450512733270000	      0.00000000000000918066	     -0.00000000000007610303	     32.96733154547678900000	     -5.12765272993296770000	     -1.63023526826151550000	    -21.74646722833230300000	     -4.26136399545295320000	     -0.00000000000000283146	     -0.00000000000005902611	      3.41910407120998630000	     -3.30441744446591870000	      6.39681933184253370000
      0.37232999999999999000	      0.87529934486203020000	      0.79557514227640436000	     -0.20991427739478918000	     -7.47200243334416130000	      0.47547945072002540000	     -6.43108789087167840000	     -2.46790534941225200000	      6.87374198047322430000	      2.95917717119406510000	     -4.29631394202044790000	      9.23964665027382990000	      0.00000000000000878426	     -0.00000000000007555522	     32.96750910600337600000	     -5.15050696182262870000	     -1.74672182405265610000	    -21.29909099001143200000	     -4.27922388347869020000	     -0.00000000000000277839	     -0.00000000000005952301	      3.43638976713809270000	     -3.27693837716998580000	      6.44372138965777100000
      0.37333000000000000000	      0.87660324220876340000	      0.79533825169111871000	     -0.20988566118664717000	     -7.48908638987028750000	      0.46878734896786295000	     -6.47563456604487000000	     -2.58183320617380780000	      6.88235087603906680000	      2.87205553503693120000	     -4.24660223106651280000	      9.27304338867122090000	      0.00000000000000843604	     -0.00000000000007500789	     32.96509220821034300000	     -5.17236583222160200000	     -1.86405973217726520000	    -20.85195725012884400000	     -4.29613368179613890000	     -0.00000000000000272301	     -0.00000000000006001257	      3.45330875942206240000	     -3.25013348767582540000	      6.49060521309659770000
      0.37433000000000000000	      0.87790867380698911000	      0.79510042382927526000	     -0.20985704580808653000	     -7.50589556551071450000	      0.46206470595863525000	     -6.51986048523620190000	     -2.69615128629656110000	      6.89088967226210070000	      2.78430486612938210000	     -4.19705591874640140000	      9.30718165815224550000	      0.00000000000000810390	     -0.00000000000007446072	     32.96181049097743500000	     -5.19389291545701240000	     -1.98168142441302990000	    -20.40490434305901600000	     -4.31272678354415890000	     -0.00000000000000266685	     -0.00000000000006049968	      3.47010551715798600000	     -3.22355332411558890000	      6.53748295840995300000
      0.37533000000000000000	      0.87921566884482638000	      0.79486184701728502000	     -0.20982839408737761000	     -7.52233023102703590000	      0.45535728503274786000	     -6.56379495781041470000	     -2.81092862977030360000	      6.89927977901907760000	      2.69602068497079730000	     -4.14774157079227560000	      9.34186044357016070000	      0.00000000000000776083	     -0.00000000000007386556	     32.95755373788324500000	     -5.21503918287751400000	     -2.09965361303473100000	    -19.95801385099279200000	     -4.32929776689612740000	     -0.00000000000000260895	     -0.00000000000006098444	      3.48666721292780670000	     -3.19726647221814410000	      6.58436975057096150000
      0.37633000000000000000	      0.88052735420149841000	      0.79462102335485407000	     -0.20979963334022392000	     -7.53764136617104090000	      0.44869553035688148000	     -6.60685509053326840000	     -2.92708376329701060000	      6.90722381737788990000	      2.60613596705911070000	     -4.09912311593610120000	      9.37816077679875450000	      0.00000000000000738502	     -0.00000000000007312640	     32.95037187720520700000	     -5.23504300285329280000	     -2.21867729081423760000	    -19.51161060393738800000	     -4.34580239505994380000	     -0.00000000000000254582	     -0.00000000000006146212	      3.50252372279932090000	     -3.17185955530907120000	      6.63128368327492800000
      0.37733000000000000000	      0.88183903955817033000	      0.79438019969242313000	     -0.20977087259307026000	     -7.55295250131504580000	      0.44203377568101504000	     -6.64991522325612290000	     -3.04323889682371760000	      6.91516785573670220000	      2.51625124914742400000	     -4.05050466107992780000	      9.41446111002734650000	      0.00000000000000700921	     -0.00000000000007238725	     32.94319001652716100000	     -5.25504682282907080000	     -2.33770096859374420000	    -19.06520735688198100000	     -4.36230702322376020000	     -0.00000000000000248270	     -0.00000000000006193980	      3.51838023267083510000	     -3.14645263839999820000	      6.67819761597889450000
      0.37833000000000000000	      0.88315500652303769000	      0.79413761061716648000	     -0.20974202391166097000	     -7.56718815314169730000	      0.43536666405980529000	     -6.69217364119584170000	     -3.16064516744193420000	      6.92272055868803540000	      2.42515028108029630000	     -4.00262714163407910000	      9.45149660941413930000	      0.00000000000000657466	     -0.00000000000007153462	     32.93333323907167900000	     -5.27401849657083140000	     -2.45758615388454380000	    -18.61954602143956800000	     -4.37958207986358070000	     -0.00000000000000241935	     -0.00000000000006243752	      3.53351558693124890000	     -3.12180050509104220000	      6.72507589441765230000
      0.37933000000000000000	      0.88447240069063693000	      0.79389443307096796000	     -0.20971314591883319000	     -7.58106531052923230000	      0.42869776679014771000	     -6.73416482087451660000	     -3.27846848375731880000	      6.93014281650354390000	      2.33364389629469040000	     -3.95499660065833770000	      9.48877716418699890000	      0.00000000000000612053	     -0.00000000000007064416	     32.92258482269037500000	     -5.29264612156792240000	     -2.57775850834577320000	    -18.17413198986815100000	     -4.39711394599540120000	     -0.00000000000000235592	     -0.00000000000006294192	      3.54841055598796370000	     -3.09739996631545720000	      6.77194228810134110000
      0.38033000000000000000	      0.88579409266744980000	      0.79364969521044959000	     -0.20968422704116502000	     -7.59381670115763270000	      0.42205676282669946000	     -6.77533899044610430000	     -3.39750276008458310000	      6.93709285425897000000	      2.24124260787513800000	     -3.90827782777977670000	      9.52644099069478930000	      0.00000000000000562356	     -0.00000000000006965706	     32.90919340870282600000	     -5.31014202001575160000	     -2.69859312897472230000	    -17.72994819585688500000	     -4.41576134009920910000	     -0.00000000000000228385	     -0.00000000000006344836	      3.56251590932755540000	     -3.07380361426826900000	      6.81871114959512160000
      0.38133000000000000000	      0.88711721724733394000	      0.79340443724515786000	     -0.20965529453521670000	     -7.60619283619965450000	      0.41542505663198759000	     -6.81624082331533110000	     -3.51694068974914040000	      6.94388548532770230000	      2.14854301824426970000	     -3.86186297760027620000	      9.56423257444755490000	      0.00000000000000511229	     -0.00000000000006863776	     32.89492099551319600000	     -5.32726067628049370000	     -2.81964850499291140000	    -17.28617448103232900000	     -4.43478057686034520000	     -0.00000000000000220890	     -0.00000000000006395547	      3.57635805742810620000	     -3.05047532446387940000	      6.86544750035893260000
